<svg xmlns="http://www.w3.org/2000/svg" viewBox="0 0 300 48" fill="none" role="img" aria-label="0?0@:5B  74>@>2L5, ;N1>2L, 701>B0">
  <defs>
    <linearGradient id="lap-grad" x1="0" y1="24" x2="48" y2="24" gradientUnits="userSpaceOnUse">
      <stop stop-color="#2EC4C4"/>
      <stop offset="1" stop-color="#A8E063"/>
    </linearGradient>
    <linearGradient id="leaf-grad" x1="0" y1="0" x2="1" y2="1">
      <stop stop-color="#7BC67E"/>
      <stop offset="1" stop-color="#3D9B40"/>
    </linearGradient>
  </defs>

  <!-- -<1;5<0: A5@4F5, ;0?0, :@5AB -->
  <g transform="translate(0 1)">
    <path
      d="M24 6.5C16.5 2.5 7.5 7.5 7.5 16.5c0 6.5 6 12.5 11 17 1 .85 2 1.65 3 2.35.5.35 1 .65 1.5.95.5-.3 1-.6 1.5-.95 1-.7 2-1.5 3-2.35 5-4.5 11-10.5 11-17C38.5 7.5 29.5 2.5 24 6.5Z"
      stroke="url(#lap-grad)"
      stroke-width="2.4"
      stroke-linejoin="round"
    />
    <path
      d="M13 19.5c3.2-2.2 6.8-2.2 10 0 3.2 2.2 6.8 2.2 10 0"
      stroke="url(#lap-grad)"
      stroke-width="2.2"
      stroke-linecap="round"
    />
    <g fill="url(#lap-grad)">
      <ellipse cx="16.2" cy="15.8" rx="2.3" ry="2.7"/>
      <circle cx="12.2" cy="11.8" r="1.75"/>
      <circle cx="15.5" cy="10.2" r="1.75"/>
      <circle cx="18.8" cy="10.2" r="1.75"/>
      <circle cx="22.1" cy="11.8" r="1.75"/>
    </g>
    <path fill="url(#lap-grad)" d="M21.2 27.2h3.6v3.6h3.6v3.6h-3.6v3.6h-3.6v-3.6h-3.6v-3.6h3.6z"/>
  </g>

  <!-- 0720=85 -->
  <text
    x="56"
    y="27"
    font-family="Arial, Helvetica, 'Nimbus Sans L', sans-serif"
    font-size="18"
    font-weight="700"
    fill="#454545"
    letter-spacing="0.6"
  >LAPMARKET</text>

  <!-- 8AB 2 1C:25 A -->
  <path
    fill="url(#leaf-grad)"
    d="M88.2 14.2c.8-.3 1.6.2 1.7 1 .1.5-.2 1-.6 1.2l-2.8 1.4c-.4.2-.9 0-1.1-.4-.3-.5-.1-1.1.4-1.3l2.4-1.9Z"
  />
  <path
    fill="#5CB85C"
    d="M87 15.8c.5.8 1.5 1 2.2.5.3-.2.5-.6.4-.9l-.6-1.8c-.1-.4-.5-.6-.8-.4-.4.2-.6.7-.4 1.1l-.8 1.5Z"
  />

  <!-- !;>30= -->
  <text
    x="56"
    y="41"
    font-family="Arial, Helvetica, 'Nimbus Sans L', sans-serif"
    font-size="7.5"
    font-weight="400"
    fill="#5C5C5C"
    letter-spacing="0.35"
  > ,. .,. ".</text>
</svg>
